<svg id="Layer_1" data-name="Layer 1" xmlns="http://www.w3.org/2000/svg" xmlns:xlink="http://www.w3.org/1999/xlink" viewBox="0 0 285.75 65.65"><defs><style>.cls-1{fill:none;}.cls-2{clip-path:url(#clip-path);}.cls-3{fill:#d94837;}.cls-4{fill:#312d46;}</style><clipPath id="clip-path" transform="translate(0 0.91)"><rect class="cls-1" y="-0.91" width="285.75" height="65.65"/></clipPath></defs><g class="cls-2"><path class="cls-3" d="M.09,62.09,0,.73A1.61,1.61,0,0,1,.5-.41a1.67,1.67,0,0,1,1.23-.5H4l36.38,35h.09V1.73A1.71,1.71,0,0,1,42.21,0H53.15a1.61,1.61,0,0,1,1.24.55,1.73,1.73,0,0,1,.5,1.18V63.09a1.57,1.57,0,0,1-.5,1.14,1.67,1.67,0,0,1-1.24.5H51.7a1.61,1.61,0,0,1-1.19-.45l-36-36.2h-.1v34a1.71,1.71,0,0,1-1.73,1.73H1.82a1.63,1.63,0,0,1-1.18-.55,1.61,1.61,0,0,1-.55-1.18" transform="translate(0 0.91)"/><path class="cls-3" d="M118.84,62.09V13.4h-13a1.72,1.72,0,0,1-1.74-1.73V1.73A1.68,1.68,0,0,1,104.58.5a1.67,1.67,0,0,1,1.23-.5h40.48A1.71,1.71,0,0,1,148,1.73v9.94a1.71,1.71,0,0,1-1.73,1.73h-13V62.09a1.61,1.61,0,0,1-.55,1.18,1.63,1.63,0,0,1-1.18.55H120.58a1.9,1.9,0,0,1-1.74-1.73" transform="translate(0 0.91)"/><path class="cls-3" d="M157.14,62.09V1.73a1.67,1.67,0,0,1,.5-1.23,1.67,1.67,0,0,1,1.23-.5h37.75a1.71,1.71,0,0,1,1.73,1.73v9.94a1.71,1.71,0,0,1-1.73,1.73H171.36V24.71h20.79a1.71,1.71,0,0,1,1.73,1.73v9.94a1.67,1.67,0,0,1-.5,1.23,1.71,1.71,0,0,1-1.23.5H171.36V50.42h25.26a1.71,1.71,0,0,1,1.73,1.73v9.94a1.71,1.71,0,0,1-1.73,1.73H158.87a1.71,1.71,0,0,1-1.73-1.73" transform="translate(0 0.91)"/><path class="cls-3" d="M224.79,50.33h8.75A16.78,16.78,0,0,0,246.26,45a18.4,18.4,0,0,0,5.06-13.17,18.28,18.28,0,0,0-5.06-13.08,16.78,16.78,0,0,0-12.72-5.34h-8.75ZM210.57,62.09V1.73a1.67,1.67,0,0,1,.5-1.23,1.57,1.57,0,0,1,1.14-.5h22.24a30.89,30.89,0,0,1,22.61,9.35,30.53,30.53,0,0,1,9.4,22.47,30.8,30.8,0,0,1-9.4,22.61,30.81,30.81,0,0,1-22.61,9.39H212.21a1.53,1.53,0,0,1-1.14-.5,1.64,1.64,0,0,1-.5-1.23" transform="translate(0 0.91)"/><path class="cls-3" d="M68.75,13.75a17.55,17.55,0,0,1,11.16,5.31A17.62,17.62,0,0,1,85.29,32a17.36,17.36,0,0,1-5.38,12.81c-3.57,3.55,4,16.74,10.4,10.4A31.53,31.53,0,0,0,99.88,32,31.81,31.81,0,0,0,90.31,8.71,31.42,31.42,0,0,0,68.75-.87a1.6,1.6,0,0,0-1.23.54A1.87,1.87,0,0,0,67,1V11.79a1.87,1.87,0,0,0,.5,1.34,1.75,1.75,0,0,0,1.23.62" transform="translate(0 0.91)"/><path class="cls-3" d="M68.75,50.11A17.55,17.55,0,0,0,79.91,44.8a17.62,17.62,0,0,0,5.38-12.94c0-5,14.59-9.12,14.59,0a31.81,31.81,0,0,1-9.57,23.29,31.42,31.42,0,0,1-21.56,9.58,1.6,1.6,0,0,1-1.23-.54,1.87,1.87,0,0,1-.5-1.34V52.07a1.87,1.87,0,0,1,.5-1.34,1.75,1.75,0,0,1,1.23-.62" transform="translate(0 0.91)"/><path class="cls-4" d="M277,46.58a8.65,8.65,0,1,1,0,17.29,8.67,8.67,0,0,1-8.55-8.56A8.75,8.75,0,0,1,277,46.58" transform="translate(0 0.91)"/></g></svg>